G04 #@! TF.FileFunction,Legend,Bot*
%FSLAX46Y46*%
G04 Gerber Fmt 4.6, Leading zero omitted, Abs format (unit mm)*
G04 Created by KiCad (PCBNEW 4.0.2-stable) date Thu 21 Apr 2016 02:04:47 AM EEST*
%MOMM*%
G01*
G04 APERTURE LIST*
%ADD10C,0.100000*%
%ADD11C,0.200000*%
%ADD12C,0.150000*%
G04 APERTURE END LIST*
D10*
D11*
X148780500Y-101917500D02*
X149479000Y-101917500D01*
X156027381Y-113665262D02*
X156027381Y-113093833D01*
X156027381Y-113379547D02*
X155027381Y-113379547D01*
X155170238Y-113284309D01*
X155265476Y-113189071D01*
X155313095Y-113093833D01*
X155027381Y-114522405D02*
X155027381Y-114331928D01*
X155075000Y-114236690D01*
X155122619Y-114189071D01*
X155265476Y-114093833D01*
X155455952Y-114046214D01*
X155836905Y-114046214D01*
X155932143Y-114093833D01*
X155979762Y-114141452D01*
X156027381Y-114236690D01*
X156027381Y-114427167D01*
X155979762Y-114522405D01*
X155932143Y-114570024D01*
X155836905Y-114617643D01*
X155598810Y-114617643D01*
X155503571Y-114570024D01*
X155455952Y-114522405D01*
X155408333Y-114427167D01*
X155408333Y-114236690D01*
X155455952Y-114141452D01*
X155503571Y-114093833D01*
X155598810Y-114046214D01*
X155027381Y-115236690D02*
X155027381Y-115331929D01*
X155075000Y-115427167D01*
X155122619Y-115474786D01*
X155217857Y-115522405D01*
X155408333Y-115570024D01*
X155646429Y-115570024D01*
X155836905Y-115522405D01*
X155932143Y-115474786D01*
X155979762Y-115427167D01*
X156027381Y-115331929D01*
X156027381Y-115236690D01*
X155979762Y-115141452D01*
X155932143Y-115093833D01*
X155836905Y-115046214D01*
X155646429Y-114998595D01*
X155408333Y-114998595D01*
X155217857Y-115046214D01*
X155122619Y-115093833D01*
X155075000Y-115141452D01*
X155027381Y-115236690D01*
X155360714Y-116427167D02*
X156027381Y-116427167D01*
X154979762Y-116189071D02*
X155694048Y-115950976D01*
X155694048Y-116570024D01*
X155122619Y-116903357D02*
X155075000Y-116950976D01*
X155027381Y-117046214D01*
X155027381Y-117284310D01*
X155075000Y-117379548D01*
X155122619Y-117427167D01*
X155217857Y-117474786D01*
X155313095Y-117474786D01*
X155455952Y-117427167D01*
X156027381Y-116855738D01*
X156027381Y-117474786D01*
X156027381Y-118427167D02*
X156027381Y-117855738D01*
X156027381Y-118141452D02*
X155027381Y-118141452D01*
X155170238Y-118046214D01*
X155265476Y-117950976D01*
X155313095Y-117855738D01*
D12*
X146558000Y-112712500D02*
X147574000Y-112712500D01*
X146466000Y-112362500D02*
X146466000Y-113062500D01*
X147666000Y-113062500D02*
X147666000Y-112362500D01*
X147574000Y-116329500D02*
X146558000Y-116329500D01*
X147666000Y-116679500D02*
X147666000Y-115979500D01*
X146466000Y-115979500D02*
X146466000Y-116679500D01*
X155067000Y-110744000D02*
X156083000Y-110744000D01*
X154975000Y-110394000D02*
X154975000Y-111094000D01*
X156175000Y-111094000D02*
X156175000Y-110394000D01*
X147574000Y-108585000D02*
X148590000Y-108585000D01*
X147482000Y-108235000D02*
X147482000Y-108935000D01*
X148682000Y-108935000D02*
X148682000Y-108235000D01*
X156123000Y-107180000D02*
X156123000Y-106180000D01*
X154773000Y-106180000D02*
X154773000Y-107180000D01*
X153924000Y-103124000D02*
X153924000Y-102489000D01*
X153924000Y-102489000D02*
X154940000Y-102489000D01*
X154940000Y-104267000D02*
X153924000Y-104267000D01*
X153924000Y-104267000D02*
X153924000Y-103632000D01*
X153797000Y-103124000D02*
X153924000Y-103124000D01*
X153924000Y-103632000D02*
X153797000Y-103632000D01*
X154940000Y-102489000D02*
X154940000Y-104267000D01*
X153797000Y-103632000D02*
X153797000Y-103124000D01*
X147106000Y-109085000D02*
X147106000Y-108085000D01*
X145756000Y-108085000D02*
X145756000Y-109085000D01*
X146883500Y-106339000D02*
X147883500Y-106339000D01*
X147883500Y-104989000D02*
X146883500Y-104989000D01*
X147820000Y-102703000D02*
X146820000Y-102703000D01*
X146820000Y-104053000D02*
X147820000Y-104053000D01*
X153883360Y-105402380D02*
X153883360Y-117101620D01*
X148884640Y-117101620D02*
X148884640Y-105402380D01*
X153883360Y-117101620D02*
X153035000Y-117101620D01*
X148884640Y-117101620D02*
X149733000Y-117101620D01*
X153883360Y-105402380D02*
X153035000Y-105402380D01*
X148884640Y-105402380D02*
X149733000Y-105402380D01*
M02*
