G04 #@! TF.FileFunction,Legend,Top*
%FSLAX46Y46*%
G04 Gerber Fmt 4.6, Leading zero omitted, Abs format (unit mm)*
G04 Created by KiCad (PCBNEW 4.0.2-stable) date Thu 21 Apr 2016 02:04:47 AM EEST*
%MOMM*%
G01*
G04 APERTURE LIST*
%ADD10C,0.100000*%
%ADD11C,0.200000*%
%ADD12C,0.150000*%
G04 APERTURE END LIST*
D10*
D11*
X156210000Y-105664000D02*
X156210000Y-106680000D01*
X155702000Y-106680000D02*
X156210000Y-106680000D01*
X155702000Y-105664000D02*
X155702000Y-106680000D01*
X156210000Y-105664000D02*
X155702000Y-105664000D01*
X149971286Y-115311381D02*
X149971286Y-114311381D01*
X150352239Y-114311381D01*
X150447477Y-114359000D01*
X150495096Y-114406619D01*
X150542715Y-114501857D01*
X150542715Y-114644714D01*
X150495096Y-114739952D01*
X150447477Y-114787571D01*
X150352239Y-114835190D01*
X149971286Y-114835190D01*
X150971286Y-115311381D02*
X150971286Y-114311381D01*
X151542715Y-115311381D01*
X151542715Y-114311381D01*
X152018905Y-115311381D02*
X152018905Y-114311381D01*
X152257000Y-114311381D01*
X152399858Y-114359000D01*
X152495096Y-114454238D01*
X152542715Y-114549476D01*
X152590334Y-114739952D01*
X152590334Y-114882810D01*
X152542715Y-115073286D01*
X152495096Y-115168524D01*
X152399858Y-115263762D01*
X152257000Y-115311381D01*
X152018905Y-115311381D01*
X149995095Y-116911381D02*
X149995095Y-115911381D01*
X150233190Y-115911381D01*
X150376048Y-115959000D01*
X150471286Y-116054238D01*
X150518905Y-116149476D01*
X150566524Y-116339952D01*
X150566524Y-116482810D01*
X150518905Y-116673286D01*
X150471286Y-116768524D01*
X150376048Y-116863762D01*
X150233190Y-116911381D01*
X149995095Y-116911381D01*
X151328429Y-116387571D02*
X151471286Y-116435190D01*
X151518905Y-116482810D01*
X151566524Y-116578048D01*
X151566524Y-116720905D01*
X151518905Y-116816143D01*
X151471286Y-116863762D01*
X151376048Y-116911381D01*
X150995095Y-116911381D01*
X150995095Y-115911381D01*
X151328429Y-115911381D01*
X151423667Y-115959000D01*
X151471286Y-116006619D01*
X151518905Y-116101857D01*
X151518905Y-116197095D01*
X151471286Y-116292333D01*
X151423667Y-116339952D01*
X151328429Y-116387571D01*
X150995095Y-116387571D01*
X152518905Y-115959000D02*
X152423667Y-115911381D01*
X152280810Y-115911381D01*
X152137952Y-115959000D01*
X152042714Y-116054238D01*
X151995095Y-116149476D01*
X151947476Y-116339952D01*
X151947476Y-116482810D01*
X151995095Y-116673286D01*
X152042714Y-116768524D01*
X152137952Y-116863762D01*
X152280810Y-116911381D01*
X152376048Y-116911381D01*
X152518905Y-116863762D01*
X152566524Y-116816143D01*
X152566524Y-116482810D01*
X152376048Y-116482810D01*
X149995095Y-117511381D02*
X149995095Y-118320905D01*
X150042714Y-118416143D01*
X150090333Y-118463762D01*
X150185571Y-118511381D01*
X150376048Y-118511381D01*
X150471286Y-118463762D01*
X150518905Y-118416143D01*
X150566524Y-118320905D01*
X150566524Y-117511381D01*
X150995095Y-118463762D02*
X151137952Y-118511381D01*
X151376048Y-118511381D01*
X151471286Y-118463762D01*
X151518905Y-118416143D01*
X151566524Y-118320905D01*
X151566524Y-118225667D01*
X151518905Y-118130429D01*
X151471286Y-118082810D01*
X151376048Y-118035190D01*
X151185571Y-117987571D01*
X151090333Y-117939952D01*
X151042714Y-117892333D01*
X150995095Y-117797095D01*
X150995095Y-117701857D01*
X151042714Y-117606619D01*
X151090333Y-117559000D01*
X151185571Y-117511381D01*
X151423667Y-117511381D01*
X151566524Y-117559000D01*
X152328429Y-117987571D02*
X152471286Y-118035190D01*
X152518905Y-118082810D01*
X152566524Y-118178048D01*
X152566524Y-118320905D01*
X152518905Y-118416143D01*
X152471286Y-118463762D01*
X152376048Y-118511381D01*
X151995095Y-118511381D01*
X151995095Y-117511381D01*
X152328429Y-117511381D01*
X152423667Y-117559000D01*
X152471286Y-117606619D01*
X152518905Y-117701857D01*
X152518905Y-117797095D01*
X152471286Y-117892333D01*
X152423667Y-117939952D01*
X152328429Y-117987571D01*
X151995095Y-117987571D01*
D12*
X153416000Y-110998000D02*
X154178000Y-110998000D01*
X148082000Y-110998000D02*
X148844000Y-110998000D01*
X147066000Y-116078000D02*
X147066000Y-113792000D01*
X155194000Y-116078000D02*
X155194000Y-113792000D01*
X156205000Y-104097000D02*
X156100000Y-104097000D01*
X156205000Y-108247000D02*
X156100000Y-108247000D01*
X146055000Y-108247000D02*
X146160000Y-108247000D01*
X146055000Y-104097000D02*
X146160000Y-104097000D01*
X156205000Y-104097000D02*
X156205000Y-108247000D01*
X146055000Y-104097000D02*
X146055000Y-108247000D01*
X156100000Y-104097000D02*
X156100000Y-102722000D01*
M02*
