G04 #@! TF.FileFunction,Copper,L2,Bot,Signal*
%FSLAX46Y46*%
G04 Gerber Fmt 4.6, Leading zero omitted, Abs format (unit mm)*
G04 Created by KiCad (PCBNEW 4.0.2-stable) date Thu 21 Apr 2016 02:04:47 AM EEST*
%MOMM*%
G01*
G04 APERTURE LIST*
%ADD10C,0.100000*%
%ADD11R,0.750000X2.400000*%
%ADD12R,0.750000X1.200000*%
%ADD13R,0.900000X1.200000*%
%ADD14R,1.000760X0.599440*%
%ADD15R,1.200000X0.900000*%
%ADD16R,2.100580X5.600700*%
%ADD17C,0.600000*%
%ADD18C,0.250000*%
%ADD19C,0.254000*%
G04 APERTURE END LIST*
D10*
D11*
X154130000Y-100284000D03*
X153130000Y-100284000D03*
X152130000Y-100284000D03*
X151130000Y-100284000D03*
X150130000Y-100284000D03*
X149130000Y-100284000D03*
X148130000Y-100284000D03*
D12*
X147066000Y-111762500D03*
X147066000Y-113662500D03*
X147066000Y-117279500D03*
X147066000Y-115379500D03*
X155575000Y-109794000D03*
X155575000Y-111694000D03*
X148082000Y-107635000D03*
X148082000Y-109535000D03*
D13*
X155448000Y-105580000D03*
X155448000Y-107780000D03*
D14*
X155381960Y-104028240D03*
X155381960Y-102727760D03*
X153482040Y-103378000D03*
D13*
X146431000Y-107485000D03*
X146431000Y-109685000D03*
D15*
X148483500Y-105664000D03*
X146283500Y-105664000D03*
X146220000Y-103378000D03*
X148420000Y-103378000D03*
D16*
X151384000Y-106403140D03*
X151384000Y-116100860D03*
D17*
X153606500Y-113665000D03*
X154559000Y-110109000D03*
X155384500Y-104394000D03*
X148082000Y-110744000D03*
X146050000Y-114554000D03*
X153924000Y-112268000D03*
X149796500Y-106235500D03*
X148463000Y-104521000D03*
X148244640Y-116100860D03*
X153606500Y-105664000D03*
X153289000Y-104775000D03*
D18*
X153606500Y-113665000D02*
X153606500Y-113411000D01*
X153606500Y-113411000D02*
X152971500Y-112776000D01*
X152971500Y-112776000D02*
X152971500Y-111315500D01*
X152971500Y-111315500D02*
X154178000Y-110109000D01*
X154178000Y-110109000D02*
X155067000Y-110109000D01*
X155067000Y-110109000D02*
X155321000Y-110109000D01*
X155321000Y-110109000D02*
X155575000Y-109855000D01*
X155575000Y-109855000D02*
X155575000Y-109794000D01*
X155575000Y-109794000D02*
X155575000Y-107907000D01*
X155575000Y-107907000D02*
X155448000Y-107780000D01*
X154559000Y-110109000D02*
X155067000Y-110109000D01*
X146220000Y-103378000D02*
X146367500Y-103378000D01*
X147320000Y-102425500D02*
X148399500Y-102425500D01*
X146367500Y-103378000D02*
X147320000Y-102425500D01*
X148399500Y-102425500D02*
X149130000Y-101695000D01*
X149130000Y-101695000D02*
X149130000Y-100584000D01*
X146220000Y-103378000D02*
X146240500Y-103378000D01*
X146240500Y-103378000D02*
X147320000Y-104457500D01*
X147320000Y-104457500D02*
X147320000Y-108773000D01*
X147320000Y-108773000D02*
X148082000Y-109535000D01*
X155381960Y-104028240D02*
X155381960Y-104391460D01*
X155381960Y-104391460D02*
X155384500Y-104394000D01*
X147066000Y-115379500D02*
X147066000Y-114554000D01*
X147066000Y-114554000D02*
X147066000Y-113662500D01*
X146939000Y-114554000D02*
X147066000Y-114554000D01*
X148082000Y-110744000D02*
X148082000Y-109535000D01*
X146939000Y-114554000D02*
X146050000Y-114554000D01*
X155575000Y-111694000D02*
X154498000Y-111694000D01*
X154498000Y-111694000D02*
X153924000Y-112268000D01*
X149796500Y-106235500D02*
X149796500Y-106426000D01*
X149796500Y-106426000D02*
X148587500Y-107635000D01*
X148587500Y-107635000D02*
X148460500Y-107635000D01*
X148460500Y-107635000D02*
X148082000Y-107635000D01*
X147066000Y-111762500D02*
X148968500Y-111762500D01*
X151384000Y-109347000D02*
X151384000Y-106403140D01*
X148968500Y-111762500D02*
X151384000Y-109347000D01*
X149479000Y-104521000D02*
X151361140Y-106403140D01*
X148463000Y-104521000D02*
X149479000Y-104521000D01*
X151361140Y-106403140D02*
X151384000Y-106403140D01*
X151384000Y-116100860D02*
X148244640Y-116100860D01*
X148244640Y-116100860D02*
X147066000Y-117279500D01*
X153606500Y-105664000D02*
X153035000Y-106235500D01*
X153035000Y-106235500D02*
X153035000Y-109347000D01*
X153035000Y-109347000D02*
X152781000Y-109601000D01*
X147955000Y-112712500D02*
X146240500Y-112712500D01*
X152781000Y-109601000D02*
X151892000Y-109601000D01*
X151892000Y-109601000D02*
X149225000Y-112268000D01*
X149225000Y-112268000D02*
X148399500Y-112268000D01*
X148399500Y-112268000D02*
X147955000Y-112712500D01*
X146240500Y-112712500D02*
X146177000Y-112649000D01*
X146177000Y-112649000D02*
X146177000Y-110236000D01*
X146177000Y-110236000D02*
X146431000Y-109982000D01*
X146431000Y-109982000D02*
X146431000Y-109685000D01*
X153289000Y-104775000D02*
X153482040Y-104581960D01*
X153482040Y-104581960D02*
X153482040Y-104333040D01*
X154729000Y-105580000D02*
X153482040Y-104333040D01*
X153482040Y-104333040D02*
X153482040Y-103378000D01*
X155448000Y-105580000D02*
X154729000Y-105580000D01*
X155381960Y-102727760D02*
X155178760Y-102727760D01*
X152717500Y-102362000D02*
X152130000Y-101774500D01*
X155178760Y-102727760D02*
X154813000Y-102362000D01*
X154813000Y-102362000D02*
X152717500Y-102362000D01*
X152130000Y-101774500D02*
X152130000Y-100584000D01*
X148420000Y-103378000D02*
X149352000Y-103378000D01*
X149352000Y-103378000D02*
X151130000Y-101600000D01*
X151130000Y-101600000D02*
X151130000Y-100584000D01*
X148483500Y-105664000D02*
X148483500Y-105557500D01*
X148483500Y-105557500D02*
X147828000Y-104902000D01*
X147828000Y-104902000D02*
X147828000Y-103970000D01*
X147828000Y-103970000D02*
X148420000Y-103378000D01*
X146431000Y-107485000D02*
X146431000Y-105811500D01*
X146431000Y-105811500D02*
X146283500Y-105664000D01*
D19*
G36*
X154397574Y-110916860D02*
X154585987Y-110917024D01*
X154565000Y-110967691D01*
X154565000Y-111408250D01*
X154723750Y-111567000D01*
X155448000Y-111567000D01*
X155448000Y-111547000D01*
X155702000Y-111547000D01*
X155702000Y-111567000D01*
X155722000Y-111567000D01*
X155722000Y-111821000D01*
X155702000Y-111821000D01*
X155702000Y-112770250D01*
X155860750Y-112929000D01*
X156076310Y-112929000D01*
X156309699Y-112832327D01*
X156389000Y-112753026D01*
X156389000Y-118543000D01*
X152952242Y-118543000D01*
X152952242Y-115599243D01*
X153138330Y-115676513D01*
X153519279Y-115676846D01*
X153871357Y-115531370D01*
X154140963Y-115262234D01*
X154287053Y-114910410D01*
X154287386Y-114529461D01*
X154169651Y-114244520D01*
X154291090Y-114123293D01*
X154414360Y-113826426D01*
X154414640Y-113504984D01*
X154291889Y-113207903D01*
X154066822Y-112982443D01*
X154054099Y-112963401D01*
X154054096Y-112963399D01*
X153604500Y-112513802D01*
X153604500Y-111979750D01*
X154565000Y-111979750D01*
X154565000Y-112420309D01*
X154661673Y-112653698D01*
X154840301Y-112832327D01*
X155073690Y-112929000D01*
X155289250Y-112929000D01*
X155448000Y-112770250D01*
X155448000Y-111821000D01*
X154723750Y-111821000D01*
X154565000Y-111979750D01*
X153604500Y-111979750D01*
X153604500Y-111577698D01*
X154304136Y-110878061D01*
X154397574Y-110916860D01*
X154397574Y-110916860D01*
G37*
X154397574Y-110916860D02*
X154585987Y-110917024D01*
X154565000Y-110967691D01*
X154565000Y-111408250D01*
X154723750Y-111567000D01*
X155448000Y-111567000D01*
X155448000Y-111547000D01*
X155702000Y-111547000D01*
X155702000Y-111567000D01*
X155722000Y-111567000D01*
X155722000Y-111821000D01*
X155702000Y-111821000D01*
X155702000Y-112770250D01*
X155860750Y-112929000D01*
X156076310Y-112929000D01*
X156309699Y-112832327D01*
X156389000Y-112753026D01*
X156389000Y-118543000D01*
X152952242Y-118543000D01*
X152952242Y-115599243D01*
X153138330Y-115676513D01*
X153519279Y-115676846D01*
X153871357Y-115531370D01*
X154140963Y-115262234D01*
X154287053Y-114910410D01*
X154287386Y-114529461D01*
X154169651Y-114244520D01*
X154291090Y-114123293D01*
X154414360Y-113826426D01*
X154414640Y-113504984D01*
X154291889Y-113207903D01*
X154066822Y-112982443D01*
X154054099Y-112963401D01*
X154054096Y-112963399D01*
X153604500Y-112513802D01*
X153604500Y-111979750D01*
X154565000Y-111979750D01*
X154565000Y-112420309D01*
X154661673Y-112653698D01*
X154840301Y-112832327D01*
X155073690Y-112929000D01*
X155289250Y-112929000D01*
X155448000Y-112770250D01*
X155448000Y-111821000D01*
X154723750Y-111821000D01*
X154565000Y-111979750D01*
X153604500Y-111979750D01*
X153604500Y-111577698D01*
X154304136Y-110878061D01*
X154397574Y-110916860D01*
G36*
X154480048Y-106160331D02*
X154480048Y-106180000D01*
X154515470Y-106368253D01*
X154626728Y-106541153D01*
X154796488Y-106657145D01*
X154906095Y-106679341D01*
X154809747Y-106697470D01*
X154636847Y-106808728D01*
X154520855Y-106978488D01*
X154480048Y-107180000D01*
X154480048Y-108380000D01*
X154515470Y-108568253D01*
X154626728Y-108741153D01*
X154796488Y-108857145D01*
X154813041Y-108860497D01*
X154722855Y-108992488D01*
X154682048Y-109194000D01*
X154682048Y-109301107D01*
X154398984Y-109300860D01*
X154101903Y-109423611D01*
X154017427Y-109507940D01*
X153975952Y-109516190D01*
X153935761Y-109524184D01*
X153730401Y-109661401D01*
X153730399Y-109661404D01*
X152523901Y-110867901D01*
X152386684Y-111073261D01*
X152338499Y-111315500D01*
X152338500Y-111315505D01*
X152338500Y-112775995D01*
X152338499Y-112776000D01*
X152339803Y-112782558D01*
X150333710Y-112782558D01*
X150145457Y-112817980D01*
X149972557Y-112929238D01*
X149856565Y-113098998D01*
X149815758Y-113300510D01*
X149815758Y-114354366D01*
X149742630Y-114177383D01*
X149473494Y-113907777D01*
X149121670Y-113761687D01*
X148740721Y-113761354D01*
X148388643Y-113906830D01*
X148119037Y-114175966D01*
X148076000Y-114279611D01*
X148076000Y-113948250D01*
X147917250Y-113789500D01*
X147193000Y-113789500D01*
X147193000Y-115252500D01*
X147213000Y-115252500D01*
X147213000Y-115506500D01*
X147193000Y-115506500D01*
X147193000Y-115526500D01*
X146939000Y-115526500D01*
X146939000Y-115506500D01*
X146214750Y-115506500D01*
X146056000Y-115665250D01*
X146056000Y-116105809D01*
X146152673Y-116339198D01*
X146245357Y-116431883D01*
X146213855Y-116477988D01*
X146173048Y-116679500D01*
X146173048Y-117879500D01*
X146208470Y-118067753D01*
X146319728Y-118240653D01*
X146489488Y-118356645D01*
X146691000Y-118397452D01*
X147441000Y-118397452D01*
X147629253Y-118362030D01*
X147802153Y-118250772D01*
X147918145Y-118081012D01*
X147958952Y-117879500D01*
X147958952Y-117281746D01*
X148331761Y-116908937D01*
X148404656Y-116909000D01*
X148701737Y-116786249D01*
X148754218Y-116733860D01*
X149815758Y-116733860D01*
X149815758Y-118543000D01*
X145871000Y-118543000D01*
X145871000Y-113948250D01*
X146056000Y-113948250D01*
X146056000Y-114388809D01*
X146110755Y-114521000D01*
X146056000Y-114653191D01*
X146056000Y-115093750D01*
X146214750Y-115252500D01*
X146939000Y-115252500D01*
X146939000Y-113789500D01*
X146214750Y-113789500D01*
X146056000Y-113948250D01*
X145871000Y-113948250D01*
X145871000Y-113212283D01*
X145930119Y-113251785D01*
X145998262Y-113297317D01*
X146056000Y-113308802D01*
X146056000Y-113376750D01*
X146214750Y-113535500D01*
X146939000Y-113535500D01*
X146939000Y-113515500D01*
X147193000Y-113515500D01*
X147193000Y-113535500D01*
X147917250Y-113535500D01*
X148076000Y-113376750D01*
X148076000Y-113321432D01*
X148197239Y-113297316D01*
X148402599Y-113160099D01*
X148661698Y-112901000D01*
X149224995Y-112901000D01*
X149225000Y-112901001D01*
X149467239Y-112852816D01*
X149672599Y-112715599D01*
X152154197Y-110234000D01*
X152780995Y-110234000D01*
X152781000Y-110234001D01*
X153023239Y-110185816D01*
X153228599Y-110048599D01*
X153482596Y-109794601D01*
X153482599Y-109794599D01*
X153619816Y-109589239D01*
X153668000Y-109347000D01*
X153668000Y-106497698D01*
X153693621Y-106472077D01*
X153766516Y-106472140D01*
X154063597Y-106349389D01*
X154291090Y-106122293D01*
X154319766Y-106053234D01*
X154480048Y-106160331D01*
X154480048Y-106160331D01*
G37*
X154480048Y-106160331D02*
X154480048Y-106180000D01*
X154515470Y-106368253D01*
X154626728Y-106541153D01*
X154796488Y-106657145D01*
X154906095Y-106679341D01*
X154809747Y-106697470D01*
X154636847Y-106808728D01*
X154520855Y-106978488D01*
X154480048Y-107180000D01*
X154480048Y-108380000D01*
X154515470Y-108568253D01*
X154626728Y-108741153D01*
X154796488Y-108857145D01*
X154813041Y-108860497D01*
X154722855Y-108992488D01*
X154682048Y-109194000D01*
X154682048Y-109301107D01*
X154398984Y-109300860D01*
X154101903Y-109423611D01*
X154017427Y-109507940D01*
X153975952Y-109516190D01*
X153935761Y-109524184D01*
X153730401Y-109661401D01*
X153730399Y-109661404D01*
X152523901Y-110867901D01*
X152386684Y-111073261D01*
X152338499Y-111315500D01*
X152338500Y-111315505D01*
X152338500Y-112775995D01*
X152338499Y-112776000D01*
X152339803Y-112782558D01*
X150333710Y-112782558D01*
X150145457Y-112817980D01*
X149972557Y-112929238D01*
X149856565Y-113098998D01*
X149815758Y-113300510D01*
X149815758Y-114354366D01*
X149742630Y-114177383D01*
X149473494Y-113907777D01*
X149121670Y-113761687D01*
X148740721Y-113761354D01*
X148388643Y-113906830D01*
X148119037Y-114175966D01*
X148076000Y-114279611D01*
X148076000Y-113948250D01*
X147917250Y-113789500D01*
X147193000Y-113789500D01*
X147193000Y-115252500D01*
X147213000Y-115252500D01*
X147213000Y-115506500D01*
X147193000Y-115506500D01*
X147193000Y-115526500D01*
X146939000Y-115526500D01*
X146939000Y-115506500D01*
X146214750Y-115506500D01*
X146056000Y-115665250D01*
X146056000Y-116105809D01*
X146152673Y-116339198D01*
X146245357Y-116431883D01*
X146213855Y-116477988D01*
X146173048Y-116679500D01*
X146173048Y-117879500D01*
X146208470Y-118067753D01*
X146319728Y-118240653D01*
X146489488Y-118356645D01*
X146691000Y-118397452D01*
X147441000Y-118397452D01*
X147629253Y-118362030D01*
X147802153Y-118250772D01*
X147918145Y-118081012D01*
X147958952Y-117879500D01*
X147958952Y-117281746D01*
X148331761Y-116908937D01*
X148404656Y-116909000D01*
X148701737Y-116786249D01*
X148754218Y-116733860D01*
X149815758Y-116733860D01*
X149815758Y-118543000D01*
X145871000Y-118543000D01*
X145871000Y-113948250D01*
X146056000Y-113948250D01*
X146056000Y-114388809D01*
X146110755Y-114521000D01*
X146056000Y-114653191D01*
X146056000Y-115093750D01*
X146214750Y-115252500D01*
X146939000Y-115252500D01*
X146939000Y-113789500D01*
X146214750Y-113789500D01*
X146056000Y-113948250D01*
X145871000Y-113948250D01*
X145871000Y-113212283D01*
X145930119Y-113251785D01*
X145998262Y-113297317D01*
X146056000Y-113308802D01*
X146056000Y-113376750D01*
X146214750Y-113535500D01*
X146939000Y-113535500D01*
X146939000Y-113515500D01*
X147193000Y-113515500D01*
X147193000Y-113535500D01*
X147917250Y-113535500D01*
X148076000Y-113376750D01*
X148076000Y-113321432D01*
X148197239Y-113297316D01*
X148402599Y-113160099D01*
X148661698Y-112901000D01*
X149224995Y-112901000D01*
X149225000Y-112901001D01*
X149467239Y-112852816D01*
X149672599Y-112715599D01*
X152154197Y-110234000D01*
X152780995Y-110234000D01*
X152781000Y-110234001D01*
X153023239Y-110185816D01*
X153228599Y-110048599D01*
X153482596Y-109794601D01*
X153482599Y-109794599D01*
X153619816Y-109589239D01*
X153668000Y-109347000D01*
X153668000Y-106497698D01*
X153693621Y-106472077D01*
X153766516Y-106472140D01*
X154063597Y-106349389D01*
X154291090Y-106122293D01*
X154319766Y-106053234D01*
X154480048Y-106160331D01*
G36*
X149815758Y-109203490D02*
X149851180Y-109391743D01*
X149962438Y-109564643D01*
X150132198Y-109680635D01*
X150151300Y-109684503D01*
X148706302Y-111129500D01*
X147952743Y-111129500D01*
X147923530Y-110974247D01*
X147812272Y-110801347D01*
X147766394Y-110770000D01*
X147796250Y-110770000D01*
X147955000Y-110611250D01*
X147955000Y-109662000D01*
X148209000Y-109662000D01*
X148209000Y-110611250D01*
X148367750Y-110770000D01*
X148583310Y-110770000D01*
X148816699Y-110673327D01*
X148995327Y-110494698D01*
X149092000Y-110261309D01*
X149092000Y-109820750D01*
X148933250Y-109662000D01*
X148209000Y-109662000D01*
X147955000Y-109662000D01*
X147935000Y-109662000D01*
X147935000Y-109408000D01*
X147955000Y-109408000D01*
X147955000Y-109388000D01*
X148209000Y-109388000D01*
X148209000Y-109408000D01*
X148933250Y-109408000D01*
X149092000Y-109249250D01*
X149092000Y-108808691D01*
X148995327Y-108575302D01*
X148902643Y-108482617D01*
X148934145Y-108436512D01*
X148974952Y-108235000D01*
X148974952Y-108122788D01*
X149035099Y-108082599D01*
X149815758Y-107301939D01*
X149815758Y-109203490D01*
X149815758Y-109203490D01*
G37*
X149815758Y-109203490D02*
X149851180Y-109391743D01*
X149962438Y-109564643D01*
X150132198Y-109680635D01*
X150151300Y-109684503D01*
X148706302Y-111129500D01*
X147952743Y-111129500D01*
X147923530Y-110974247D01*
X147812272Y-110801347D01*
X147766394Y-110770000D01*
X147796250Y-110770000D01*
X147955000Y-110611250D01*
X147955000Y-109662000D01*
X148209000Y-109662000D01*
X148209000Y-110611250D01*
X148367750Y-110770000D01*
X148583310Y-110770000D01*
X148816699Y-110673327D01*
X148995327Y-110494698D01*
X149092000Y-110261309D01*
X149092000Y-109820750D01*
X148933250Y-109662000D01*
X148209000Y-109662000D01*
X147955000Y-109662000D01*
X147935000Y-109662000D01*
X147935000Y-109408000D01*
X147955000Y-109408000D01*
X147955000Y-109388000D01*
X148209000Y-109388000D01*
X148209000Y-109408000D01*
X148933250Y-109408000D01*
X149092000Y-109249250D01*
X149092000Y-108808691D01*
X148995327Y-108575302D01*
X148902643Y-108482617D01*
X148934145Y-108436512D01*
X148974952Y-108235000D01*
X148974952Y-108122788D01*
X149035099Y-108082599D01*
X149815758Y-107301939D01*
X149815758Y-109203490D01*
G36*
X146347000Y-103251000D02*
X146367000Y-103251000D01*
X146367000Y-103505000D01*
X146347000Y-103505000D01*
X146347000Y-104304250D01*
X146505750Y-104463000D01*
X146946309Y-104463000D01*
X147179698Y-104366327D01*
X147195000Y-104351025D01*
X147195000Y-104812007D01*
X147085012Y-104736855D01*
X146883500Y-104696048D01*
X145871000Y-104696048D01*
X145871000Y-104463000D01*
X145934250Y-104463000D01*
X146093000Y-104304250D01*
X146093000Y-103505000D01*
X146073000Y-103505000D01*
X146073000Y-103251000D01*
X146093000Y-103251000D01*
X146093000Y-103231000D01*
X146347000Y-103231000D01*
X146347000Y-103251000D01*
X146347000Y-103251000D01*
G37*
X146347000Y-103251000D02*
X146367000Y-103251000D01*
X146367000Y-103505000D01*
X146347000Y-103505000D01*
X146347000Y-104304250D01*
X146505750Y-104463000D01*
X146946309Y-104463000D01*
X147179698Y-104366327D01*
X147195000Y-104351025D01*
X147195000Y-104812007D01*
X147085012Y-104736855D01*
X146883500Y-104696048D01*
X145871000Y-104696048D01*
X145871000Y-104463000D01*
X145934250Y-104463000D01*
X146093000Y-104304250D01*
X146093000Y-103505000D01*
X146073000Y-103505000D01*
X146073000Y-103251000D01*
X146093000Y-103251000D01*
X146093000Y-103231000D01*
X146347000Y-103231000D01*
X146347000Y-103251000D01*
G36*
X155508960Y-103901240D02*
X155528960Y-103901240D01*
X155528960Y-104155240D01*
X155508960Y-104155240D01*
X155508960Y-104175240D01*
X155254960Y-104175240D01*
X155254960Y-104155240D01*
X155234960Y-104155240D01*
X155234960Y-103901240D01*
X155254960Y-103901240D01*
X155254960Y-103881240D01*
X155508960Y-103881240D01*
X155508960Y-103901240D01*
X155508960Y-103901240D01*
G37*
X155508960Y-103901240D02*
X155528960Y-103901240D01*
X155528960Y-104155240D01*
X155508960Y-104155240D01*
X155508960Y-104175240D01*
X155254960Y-104175240D01*
X155254960Y-104155240D01*
X155234960Y-104155240D01*
X155234960Y-103901240D01*
X155254960Y-103901240D01*
X155254960Y-103881240D01*
X155508960Y-103881240D01*
X155508960Y-103901240D01*
G36*
X149318012Y-102516790D02*
X149221512Y-102450855D01*
X149020000Y-102410048D01*
X147820000Y-102410048D01*
X147631747Y-102445470D01*
X147458847Y-102556728D01*
X147393281Y-102652687D01*
X147358327Y-102568301D01*
X147179698Y-102389673D01*
X146946309Y-102293000D01*
X146505750Y-102293000D01*
X146347002Y-102451748D01*
X146347002Y-102381484D01*
X146493486Y-102235000D01*
X149599803Y-102235000D01*
X149318012Y-102516790D01*
X149318012Y-102516790D01*
G37*
X149318012Y-102516790D02*
X149221512Y-102450855D01*
X149020000Y-102410048D01*
X147820000Y-102410048D01*
X147631747Y-102445470D01*
X147458847Y-102556728D01*
X147393281Y-102652687D01*
X147358327Y-102568301D01*
X147179698Y-102389673D01*
X146946309Y-102293000D01*
X146505750Y-102293000D01*
X146347002Y-102451748D01*
X146347002Y-102381484D01*
X146493486Y-102235000D01*
X149599803Y-102235000D01*
X149318012Y-102516790D01*
M02*
